# xmcd
#
# Track frame offsets: 
#        150
#        18127
#        45644
#        65798
#        92603
#        113780
#        132504
#        149646
#        167153
#        188426
#        211829
#        228178
#        243127
#        266498
#
# Disc length: 3723 seconds
#
# Revision: 0
# Processed by: cddbd v1.5.2PL0 Copyright (c) Steve Scherf et al.
# Submitted via: ExactAudioCopyFreeDBPlugin 1.0
#
DISCID=bc0e890e
DTITLE=Various Artist - Red Hot Audiophile 2008
DYEAR=2008
DGENRE=
TTITLE0=Kirsti Huke - Wish You Were Here
TTITLE1=Chie Ayado - Will You Still Love Me Tomorrow
TTITLE2=Tata - When Will I See You Again
TTITLE3=Akapelleando - Hotel California
TTITLE4=Carmen Cuesta-Loeb - Suddenly Love
TTITLE5=George Garzone and Trio Da Paz - Choro
TTITLE6=Lisa Wahlandt and Mulo Francel - Close To You
TTITLE7=Eva Taylo - Everybody Loves My Baby
TTITLE8=Svante Thuresson and Kathrine Madsen - Send In The Clowns
TTITLE9=Nicki Parrott - Cry Me A River
TTITLE10=Kari Bremnes - Stejemelause Dogn
TTITLE11=Stefanie Schlesinger - You Don't Know What Love Is
TTITLE12=Robert Wolf and Fang Kammerlander - Cinema Paradiso
TTITLE13=Thomas Christian Ensemble - Wien Bleibt Wien, March
EXTD=
EXTT0=
EXTT1=
EXTT2=
EXTT3=
EXTT4=
EXTT5=
EXTT6=
EXTT7=
EXTT8=
EXTT9=
EXTT10=
EXTT11=
EXTT12=
EXTT13=
PLAYORDER=
